<svg width="1360" height="172" viewBox="0 0 1360 172" fill="none" xmlns="http://www.w3.org/2000/svg">
<path d="M1009.03 81.2285C1009.03 42.6781 985.824 4.12773 935.469 3.51944C891.785 2.91115 858.878 34.2381 858.878 85.715C858.878 137.191 894.444 168.518 936.306 168.518C978.16 168.518 1002.58 146.24 1008.04 114.609H980.889C975.736 133.01 961.331 144.11 936.908 144.11C912.493 144.11 888.986 129.056 886.553 94.4588H1008.04C1008.65 89.9731 1008.95 85.715 1008.95 81.2285H1009.03ZM887.242 71.572C891.183 40.5491 910.139 27.9271 934.859 27.9271C959.587 27.9271 977.628 40.245 980.967 71.572H887.242Z" fill="white" stroke="white" stroke-width="6"/>
<path d="M1320.04 105.526H1272.02V83.3045H1326.47C1336.74 83.3045 1344.59 85.8717 1349.87 90.7865C1355.15 95.6957 1357.94 103.018 1357.94 112.694V166.454H1334.56V117.752V117.252H1334.06H1333.6H1333.15L1333.1 117.702C1331.5 133.698 1325.45 146.739 1315.7 155.781C1305.95 164.821 1292.46 169.902 1275.89 169.902C1253.49 169.902 1234.43 161.676 1220.97 147.1C1207.5 132.522 1199.6 111.556 1199.6 86.0234C1199.6 61.7575 1207.27 41.0227 1221.1 26.3585C1234.94 11.6978 1254.98 3.06396 1279.8 3.06396C1300.62 3.06396 1318.15 9.23998 1331.33 20.4471C1344.38 31.5468 1353.19 47.6114 1356.69 67.5899H1329.41C1326.82 55.0316 1320.88 44.8926 1312.4 37.8731C1303.82 30.7786 1292.67 26.8949 1279.8 26.8949C1263.59 26.8949 1250.34 32.5749 1241.15 42.8393C1231.97 53.0976 1226.88 67.8842 1226.88 86.0234C1226.88 104.392 1232.02 119.349 1241.09 129.72C1250.16 140.099 1263.12 145.842 1278.65 145.842C1291.29 145.842 1301.77 141.723 1309.09 134.666C1316.41 127.607 1320.54 117.644 1320.54 106.026V105.526H1320.04Z" fill="white" stroke="white"/>
<mask id="path-3-inside-1_2501_6313" fill="white">
<path d="M1357.29 68.09V69.6541H1359.13L1358.83 67.8287L1357.29 68.09ZM1329 68.09L1327.47 68.3967L1327.72 69.6541H1329V68.09ZM1320.04 106.026H1321.6V104.462H1320.04V106.026ZM1271.52 106.026H1269.96V107.59H1271.52V106.026ZM1271.52 82.8046V81.2406H1269.96V82.8046H1271.52ZM1358.44 166.954V168.518H1360V166.954H1358.44ZM1334.06 166.954H1332.5V168.518H1334.06V166.954ZM1334.06 117.752H1335.62V116.188H1334.06V117.752ZM1333.6 117.752V116.188H1332.18L1332.04 117.596L1333.6 117.752ZM1275.89 168.838C1253.76 168.838 1234.99 160.719 1221.75 146.379C1208.49 132.029 1200.66 111.336 1200.66 86.0234H1197.53C1197.53 111.982 1205.57 133.478 1219.45 148.501C1233.34 163.532 1252.96 171.967 1275.89 171.967V168.838ZM1200.66 86.0234C1200.66 61.9813 1208.26 41.5233 1221.88 27.0889C1235.49 12.6653 1255.23 4.1281 1279.8 4.1281V1C1254.47 1 1233.87 9.8215 1219.6 24.942C1205.35 40.0517 1197.53 61.3235 1197.53 86.0234H1200.66ZM1279.8 4.1281C1300.41 4.1281 1317.68 10.2366 1330.63 21.2577C1343.59 32.28 1352.34 48.3107 1355.74 68.3514L1358.83 67.8287C1355.32 47.1743 1346.26 30.442 1332.66 18.875C1319.06 7.30692 1301.04 1 1279.8 1V4.1281ZM1357.29 66.526H1329V69.6541H1357.29V66.526ZM1330.54 67.7833C1327.94 54.8295 1321.86 44.3216 1313.07 37.0532C1304.28 29.784 1292.89 25.8309 1279.8 25.8309V28.959C1292.24 28.959 1302.91 32.708 1311.08 39.4636C1319.25 46.2202 1325 56.0598 1327.47 68.3967L1330.54 67.7833ZM1279.8 25.8309C1263.33 25.8309 1249.77 31.611 1240.36 42.1297C1230.96 52.6288 1225.82 67.6912 1225.82 86.0234H1228.95C1228.95 68.2589 1233.92 54.007 1242.69 44.2161C1251.43 34.4447 1264.09 28.959 1279.8 28.959V25.8309ZM1225.82 86.0234C1225.82 104.586 1231.01 119.812 1240.29 130.421C1249.58 141.051 1262.84 146.906 1278.65 146.906V143.778C1263.65 143.778 1251.28 138.252 1242.64 128.362C1233.98 118.451 1228.95 104.018 1228.95 86.0234H1225.82ZM1278.65 146.906C1291.53 146.906 1302.28 142.707 1309.83 135.432C1317.38 128.154 1321.6 117.904 1321.6 106.026H1318.47C1318.47 117.139 1314.53 126.548 1307.66 133.18C1300.78 139.814 1290.84 143.778 1278.65 143.778V146.906ZM1320.04 104.462H1271.52V107.59H1320.04V104.462ZM1273.09 106.026V82.8046H1269.96V106.026H1273.09ZM1271.52 84.3687H1326.47V81.2406H1271.52V84.3687ZM1326.47 84.3687C1336.58 84.3687 1344.13 86.8946 1349.15 91.5657C1354.15 96.2187 1356.87 103.223 1356.87 112.694H1360C1360 102.622 1357.08 94.6813 1351.28 89.2759C1345.49 83.8877 1337.06 81.2406 1326.47 81.2406V84.3687ZM1356.87 112.694V166.954H1360V112.694H1356.87ZM1358.44 165.39H1334.06V168.518H1358.44V165.39ZM1335.62 166.954V117.752H1332.5V166.954H1335.62ZM1334.06 116.188H1333.6V119.316H1334.06V116.188ZM1332.04 117.596C1330.47 133.383 1324.5 146.167 1314.98 155C1305.45 163.83 1292.23 168.838 1275.89 168.838V171.967C1292.89 171.967 1306.92 166.743 1317.11 157.295C1327.3 147.85 1333.52 134.309 1335.15 117.907L1332.04 117.596Z"/>
</mask>
<path d="M1357.29 68.09V69.6541H1359.13L1358.83 67.8287L1357.29 68.09ZM1329 68.09L1327.47 68.3967L1327.72 69.6541H1329V68.09ZM1320.04 106.026H1321.6V104.462H1320.04V106.026ZM1271.52 106.026H1269.96V107.59H1271.52V106.026ZM1271.52 82.8046V81.2406H1269.96V82.8046H1271.52ZM1358.44 166.954V168.518H1360V166.954H1358.44ZM1334.06 166.954H1332.5V168.518H1334.06V166.954ZM1334.06 117.752H1335.62V116.188H1334.06V117.752ZM1333.6 117.752V116.188H1332.18L1332.04 117.596L1333.6 117.752ZM1275.89 168.838C1253.76 168.838 1234.99 160.719 1221.75 146.379C1208.49 132.029 1200.66 111.336 1200.66 86.0234H1197.53C1197.53 111.982 1205.57 133.478 1219.45 148.501C1233.34 163.532 1252.96 171.967 1275.89 171.967V168.838ZM1200.66 86.0234C1200.66 61.9813 1208.26 41.5233 1221.88 27.0889C1235.49 12.6653 1255.23 4.1281 1279.8 4.1281V1C1254.47 1 1233.87 9.8215 1219.6 24.942C1205.35 40.0517 1197.53 61.3235 1197.53 86.0234H1200.66ZM1279.8 4.1281C1300.41 4.1281 1317.68 10.2366 1330.63 21.2577C1343.59 32.28 1352.34 48.3107 1355.74 68.3514L1358.83 67.8287C1355.32 47.1743 1346.26 30.442 1332.66 18.875C1319.06 7.30692 1301.04 1 1279.8 1V4.1281ZM1357.29 66.526H1329V69.6541H1357.29V66.526ZM1330.54 67.7833C1327.94 54.8295 1321.86 44.3216 1313.07 37.0532C1304.28 29.784 1292.89 25.8309 1279.8 25.8309V28.959C1292.24 28.959 1302.91 32.708 1311.08 39.4636C1319.25 46.2202 1325 56.0598 1327.47 68.3967L1330.54 67.7833ZM1279.8 25.8309C1263.33 25.8309 1249.77 31.611 1240.36 42.1297C1230.96 52.6288 1225.82 67.6912 1225.82 86.0234H1228.95C1228.95 68.2589 1233.92 54.007 1242.69 44.2161C1251.43 34.4447 1264.09 28.959 1279.8 28.959V25.8309ZM1225.82 86.0234C1225.82 104.586 1231.01 119.812 1240.29 130.421C1249.58 141.051 1262.84 146.906 1278.65 146.906V143.778C1263.65 143.778 1251.28 138.252 1242.64 128.362C1233.98 118.451 1228.95 104.018 1228.95 86.0234H1225.82ZM1278.65 146.906C1291.53 146.906 1302.28 142.707 1309.83 135.432C1317.38 128.154 1321.6 117.904 1321.6 106.026H1318.47C1318.47 117.139 1314.53 126.548 1307.66 133.18C1300.78 139.814 1290.84 143.778 1278.65 143.778V146.906ZM1320.04 104.462H1271.52V107.59H1320.04V104.462ZM1273.09 106.026V82.8046H1269.96V106.026H1273.09ZM1271.52 84.3687H1326.47V81.2406H1271.52V84.3687ZM1326.47 84.3687C1336.58 84.3687 1344.13 86.8946 1349.15 91.5657C1354.15 96.2187 1356.87 103.223 1356.87 112.694H1360C1360 102.622 1357.08 94.6813 1351.28 89.2759C1345.49 83.8877 1337.06 81.2406 1326.47 81.2406V84.3687ZM1356.87 112.694V166.954H1360V112.694H1356.87ZM1358.44 165.39H1334.06V168.518H1358.44V165.39ZM1335.62 166.954V117.752H1332.5V166.954H1335.62ZM1334.06 116.188H1333.6V119.316H1334.06V116.188ZM1332.04 117.596C1330.47 133.383 1324.5 146.167 1314.98 155C1305.45 163.83 1292.23 168.838 1275.89 168.838V171.967C1292.89 171.967 1306.92 166.743 1317.11 157.295C1327.3 147.85 1333.52 134.309 1335.15 117.907L1332.04 117.596Z" fill="white"/>
<path d="M1200.66 85.5234H1197.53V86.5234H1200.66V85.5234ZM1276.39 171.967V168.838H1275.39V171.967H1276.39ZM1280.3 4.1281V1H1279.3V4.1281H1280.3ZM1279.3 25.8309V28.959H1280.3V25.8309H1279.3ZM1225.82 86.5234H1228.95V85.5234H1225.82V86.5234ZM1279.15 146.906V143.778H1278.15V146.906H1279.15ZM1326.97 84.3687V81.2406H1325.97V84.3687H1326.97ZM1356.87 113.194H1360V112.194H1356.87V113.194ZM1357.29 68.09L1357.12 67.1041L1356.29 67.2454V68.09H1357.29ZM1359.13 69.6541V70.6541H1360.31L1360.12 69.4893L1359.13 69.6541ZM1358.83 67.8287L1359.81 67.6639L1359.81 67.6614L1358.83 67.8287ZM1329 68.09H1330V66.8701L1328.8 67.1095L1329 68.09ZM1327.72 69.6541L1326.74 69.8493L1326.9 70.6541H1327.72V69.6541ZM1320.04 106.026H1319.04V107.026H1320.04V106.026ZM1321.6 104.462H1322.6V103.462H1321.6V104.462ZM1271.52 106.026H1272.52V105.026H1271.52V106.026ZM1269.96 107.59H1268.96V108.59H1269.96V107.59ZM1271.52 82.8046V83.8046H1272.52V82.8046H1271.52ZM1269.96 81.2406V80.2406H1268.96V81.2406H1269.96ZM1358.44 166.954V165.954H1357.44V166.954H1358.44ZM1360 168.518V169.518H1361V168.518H1360ZM1334.06 166.954H1335.06V165.954H1334.06V166.954ZM1332.5 168.518H1331.5V169.518H1332.5V168.518ZM1334.06 117.752H1333.06V118.752H1334.06V117.752ZM1335.62 116.188H1336.62V115.188H1335.62V116.188ZM1333.6 117.752L1333.5 118.747L1334.6 118.857V117.752H1333.6ZM1332.18 116.188V115.188H1331.28L1331.19 116.088L1332.18 116.188ZM1332.04 117.596L1331.05 117.497L1331.05 117.497L1332.04 117.596ZM1221.75 146.379L1221.01 147.057L1221.01 147.057L1221.75 146.379ZM1219.45 148.501L1218.71 149.18L1218.71 149.18L1219.45 148.501ZM1221.88 27.0889L1222.61 27.7752L1222.61 27.7751L1221.88 27.0889ZM1219.6 24.942L1218.88 24.2556L1218.88 24.2558L1219.6 24.942ZM1330.63 21.2577L1331.28 20.496L1331.28 20.4959L1330.63 21.2577ZM1355.74 68.3514L1354.75 68.5183L1354.92 69.5042L1355.9 69.3374L1355.74 68.3514ZM1332.66 18.875L1332.01 19.6367L1332.01 19.6367L1332.66 18.875ZM1357.29 66.526H1358.29V65.526H1357.29V66.526ZM1329 66.526V65.526H1328V66.526H1329ZM1330.54 67.7833L1330.74 68.764L1331.72 68.5681L1331.52 67.5868L1330.54 67.7833ZM1313.07 37.0532L1312.43 37.8238L1312.43 37.8239L1313.07 37.0532ZM1311.08 39.4636L1310.44 40.2341L1310.44 40.2343L1311.08 39.4636ZM1240.36 42.1297L1241.1 42.7968L1241.1 42.7967L1240.36 42.1297ZM1242.69 44.2161L1243.43 44.8832L1243.43 44.8829L1242.69 44.2161ZM1240.29 130.421L1241.04 129.763L1241.04 129.762L1240.29 130.421ZM1242.64 128.362L1243.39 127.704L1243.39 127.704L1242.64 128.362ZM1309.83 135.432L1309.13 134.712L1309.13 134.712L1309.83 135.432ZM1318.47 106.026V105.026H1317.47V106.026H1318.47ZM1307.66 133.18L1308.35 133.9L1308.35 133.899L1307.66 133.18ZM1271.52 104.462V103.462H1270.52V104.462H1271.52ZM1320.04 107.59V108.59H1321.04V107.59H1320.04ZM1273.09 106.026V107.026H1274.09V106.026H1273.09ZM1273.09 82.8046H1274.09V81.8046H1273.09V82.8046ZM1271.52 84.3687H1270.52V85.3687H1271.52V84.3687ZM1349.15 91.5657L1348.46 92.2973L1348.46 92.298L1349.15 91.5657ZM1351.28 89.2759L1351.96 88.5442L1351.96 88.544L1351.28 89.2759ZM1356.87 166.954H1355.87V167.954H1356.87V166.954ZM1358.44 165.39H1359.44V164.39H1358.44V165.39ZM1334.06 165.39V164.39H1333.06V165.39H1334.06ZM1335.62 166.954V167.954H1336.62V166.954H1335.62ZM1332.5 117.752V116.752H1331.5V117.752H1332.5ZM1333.6 119.316H1332.6V120.316H1333.6V119.316ZM1334.06 119.316V120.316H1335.06V119.316H1334.06ZM1314.98 155L1315.66 155.734L1315.66 155.734L1314.98 155ZM1317.11 157.295L1316.43 156.562L1316.43 156.562L1317.11 157.295ZM1335.15 117.907L1336.15 118.007L1336.25 117.012L1335.25 116.912L1335.15 117.907ZM1356.29 68.09V69.6541H1358.29V68.09H1356.29ZM1357.29 70.6541H1359.13V68.6541H1357.29V70.6541ZM1360.12 69.4893L1359.81 67.6639L1357.84 67.9934L1358.15 69.8188L1360.12 69.4893ZM1358.66 66.8428L1357.12 67.1041L1357.45 69.0759L1358.99 68.8146L1358.66 66.8428ZM1328.8 67.1095L1327.27 67.4162L1327.66 69.3773L1329.2 69.0706L1328.8 67.1095ZM1326.49 68.592L1326.74 69.8493L1328.7 69.4588L1328.45 68.2015L1326.49 68.592ZM1327.72 70.6541H1329V68.6541H1327.72V70.6541ZM1330 69.6541V68.09H1328V69.6541H1330ZM1320.04 107.026H1321.6V105.026H1320.04V107.026ZM1322.6 106.026V104.462H1320.6V106.026H1322.6ZM1321.6 103.462H1320.04V105.462H1321.6V103.462ZM1319.04 104.462V106.026H1321.04V104.462H1319.04ZM1271.52 105.026H1269.96V107.026H1271.52V105.026ZM1268.96 106.026V107.59H1270.96V106.026H1268.96ZM1269.96 108.59H1271.52V106.59H1269.96V108.59ZM1272.52 107.59V106.026H1270.52V107.59H1272.52ZM1272.52 82.8046V81.2406H1270.52V82.8046H1272.52ZM1271.52 80.2406H1269.96V82.2406H1271.52V80.2406ZM1268.96 81.2406V82.8046H1270.96V81.2406H1268.96ZM1269.96 83.8046H1271.52V81.8046H1269.96V83.8046ZM1357.44 166.954V168.518H1359.44V166.954H1357.44ZM1358.44 169.518H1360V167.518H1358.44V169.518ZM1361 168.518V166.954H1359V168.518H1361ZM1360 165.954H1358.44V167.954H1360V165.954ZM1334.06 165.954H1332.5V167.954H1334.06V165.954ZM1331.5 166.954V168.518H1333.5V166.954H1331.5ZM1332.5 169.518H1334.06V167.518H1332.5V169.518ZM1335.06 168.518V166.954H1333.06V168.518H1335.06ZM1334.06 118.752H1335.62V116.752H1334.06V118.752ZM1336.62 117.752V116.188H1334.62V117.752H1336.62ZM1335.62 115.188H1334.06V117.188H1335.62V115.188ZM1333.06 116.188V117.752H1335.06V116.188H1333.06ZM1334.6 117.752V116.188H1332.6V117.752H1334.6ZM1333.6 115.188H1332.18V117.188H1333.6V115.188ZM1331.19 116.088L1331.05 117.497L1333.04 117.696L1333.18 116.287L1331.19 116.088ZM1331.94 118.591L1333.5 118.747L1333.7 116.757L1332.14 116.601L1331.94 118.591ZM1275.89 167.838C1254.02 167.838 1235.52 159.819 1222.48 145.7L1221.01 147.057C1234.46 161.618 1253.51 169.838 1275.89 169.838V167.838ZM1222.48 145.7C1209.42 131.566 1201.66 111.13 1201.66 86.0234H1199.66C1199.66 111.543 1207.56 132.492 1221.01 147.057L1222.48 145.7ZM1196.53 86.0234C1196.53 112.189 1204.64 133.942 1218.71 149.18L1220.18 147.823C1206.51 133.015 1198.53 111.775 1198.53 86.0234H1196.53ZM1218.71 149.18C1232.8 164.432 1252.71 172.967 1275.89 172.967V170.967C1253.22 170.967 1233.87 162.633 1220.18 147.822L1218.71 149.18ZM1201.66 86.0234C1201.66 62.1916 1209.19 41.9939 1222.61 27.7752L1221.15 26.4025C1207.32 41.0528 1199.66 61.771 1199.66 86.0234H1201.66ZM1222.61 27.7751C1236 13.5744 1255.47 5.1281 1279.8 5.1281V3.1281C1254.99 3.1281 1234.97 11.7561 1221.15 26.4026L1222.61 27.7751ZM1279.8 0C1254.23 0 1233.36 8.9124 1218.88 24.2556L1220.33 25.6285C1234.39 10.7306 1254.72 2 1279.8 2V0ZM1218.88 24.2558C1204.42 39.5813 1196.53 61.1131 1196.53 86.0234H1198.53C1198.53 61.5338 1206.28 40.5222 1220.33 25.6283L1218.88 24.2558ZM1279.8 5.1281C1300.21 5.1281 1317.23 11.1731 1329.99 22.0194L1331.28 20.4959C1318.12 9.30007 1300.61 3.1281 1279.8 3.1281V5.1281ZM1329.99 22.0194C1342.74 32.8675 1351.39 48.6739 1354.75 68.5183L1356.72 68.1844C1353.3 47.9475 1344.45 31.6924 1331.28 20.496L1329.99 22.0194ZM1355.9 69.3374L1358.99 68.8147L1358.66 66.8427L1355.57 67.3654L1355.9 69.3374ZM1359.81 67.6614C1356.28 46.811 1347.11 29.8545 1333.31 18.1133L1332.01 19.6367C1345.41 31.0296 1354.37 47.5375 1357.84 67.9959L1359.81 67.6614ZM1333.31 18.1133C1319.5 6.37034 1301.25 0 1279.8 0V2C1300.84 2 1318.62 8.24349 1332.01 19.6367L1333.31 18.1133ZM1357.29 65.526H1329V67.526H1357.29V65.526ZM1328 66.526V69.6541H1330V66.526H1328ZM1329 70.6541H1357.29V68.6541H1329V70.6541ZM1358.29 69.6541V66.526H1356.29V69.6541H1358.29ZM1331.52 67.5868C1328.89 54.4362 1322.7 43.7147 1313.71 36.2826L1312.43 37.8239C1321.03 44.9285 1327 55.2228 1329.56 67.9798L1331.52 67.5868ZM1313.71 36.2826C1304.72 28.8494 1293.09 24.8309 1279.8 24.8309V26.8309C1292.68 26.8309 1303.84 30.7187 1312.43 37.8238L1313.71 36.2826ZM1279.8 29.959C1292.03 29.959 1302.47 33.6427 1310.44 40.2341L1311.71 38.6932C1303.35 31.7732 1292.44 27.959 1279.8 27.959V29.959ZM1310.44 40.2343C1318.41 46.8273 1324.06 56.4532 1326.49 68.5925L1328.45 68.2009C1325.95 55.6664 1320.08 45.6131 1311.71 38.6929L1310.44 40.2343ZM1327.66 69.3774L1330.74 68.764L1330.35 66.8027L1327.27 67.4161L1327.66 69.3774ZM1279.8 24.8309C1263.08 24.8309 1249.24 30.7051 1239.61 41.4628L1241.1 42.7967C1250.3 32.517 1263.57 26.8309 1279.8 26.8309V24.8309ZM1239.61 41.4627C1230.01 52.1883 1224.82 67.5098 1224.82 86.0234H1226.82C1226.82 67.8725 1231.91 53.0693 1241.1 42.7968L1239.61 41.4627ZM1229.95 86.0234C1229.95 68.4404 1234.87 54.4476 1243.43 44.8832L1241.94 43.549C1232.97 53.5664 1227.95 68.0775 1227.95 86.0234H1229.95ZM1243.43 44.8829C1251.96 35.3506 1264.34 29.959 1279.8 29.959V27.959C1263.85 27.959 1250.9 33.5388 1241.94 43.5493L1243.43 44.8829ZM1224.82 86.0234C1224.82 104.767 1230.06 120.246 1239.53 131.079L1241.04 129.762C1231.96 119.377 1226.82 104.405 1226.82 86.0234H1224.82ZM1239.53 131.079C1249.03 141.945 1262.58 147.906 1278.65 147.906V145.906C1263.1 145.906 1250.12 140.156 1241.04 129.763L1239.53 131.079ZM1278.65 142.778C1263.92 142.778 1251.83 137.357 1243.39 127.704L1241.89 129.02C1250.74 139.146 1263.39 144.778 1278.65 144.778V142.778ZM1243.39 127.704C1234.92 118.016 1229.95 103.837 1229.95 86.0234H1227.95C1227.95 104.199 1233.03 118.886 1241.89 129.021L1243.39 127.704ZM1278.65 147.906C1291.75 147.906 1302.76 143.632 1310.52 136.152L1309.13 134.712C1301.8 141.783 1291.31 145.906 1278.65 145.906V147.906ZM1310.52 136.152C1318.29 128.667 1322.6 118.149 1322.6 106.026H1320.6C1320.6 117.66 1316.47 127.64 1309.13 134.712L1310.52 136.152ZM1321.6 105.026H1318.47V107.026H1321.6V105.026ZM1317.47 106.026C1317.47 116.895 1313.62 126.035 1306.96 132.46L1308.35 133.899C1315.44 127.061 1319.47 117.384 1319.47 106.026H1317.47ZM1306.96 132.46C1300.3 138.89 1290.62 142.778 1278.65 142.778V144.778C1291.06 144.778 1301.26 140.739 1308.35 133.9L1306.96 132.46ZM1320.04 103.462H1271.52V105.462H1320.04V103.462ZM1270.52 104.462V107.59H1272.52V104.462H1270.52ZM1271.52 108.59H1320.04V106.59H1271.52V108.59ZM1321.04 107.59V104.462H1319.04V107.59H1321.04ZM1274.09 106.026V82.8046H1272.09V106.026H1274.09ZM1273.09 81.8046H1269.96V83.8046H1273.09V81.8046ZM1268.96 82.8046V106.026H1270.96V82.8046H1268.96ZM1269.96 107.026H1273.09V105.026H1269.96V107.026ZM1271.52 85.3687H1326.47V83.3687H1271.52V85.3687ZM1326.47 80.2406H1271.52V82.2406H1326.47V80.2406ZM1270.52 81.2406V84.3687H1272.52V81.2406H1270.52ZM1326.47 85.3687C1336.42 85.3687 1343.7 87.856 1348.46 92.2973L1349.83 90.8341C1344.57 85.9333 1336.73 83.3687 1326.47 83.3687V85.3687ZM1348.46 92.298C1353.21 96.7106 1355.87 103.415 1355.87 112.694H1357.87C1357.87 103.03 1355.09 95.7268 1349.83 90.8333L1348.46 92.298ZM1361 112.694C1361 102.43 1358.02 94.1898 1351.96 88.5442L1350.6 90.0076C1356.14 95.1727 1359 102.814 1359 112.694H1361ZM1351.96 88.544C1345.93 82.9263 1337.22 80.2406 1326.47 80.2406V82.2406C1336.91 82.2406 1345.06 84.8492 1350.6 90.0078L1351.96 88.544ZM1355.87 112.694V166.954H1357.87V112.694H1355.87ZM1356.87 167.954H1360V165.954H1356.87V167.954ZM1361 166.954V112.694H1359V166.954H1361ZM1358.44 164.39H1334.06V166.39H1358.44V164.39ZM1333.06 165.39V168.518H1335.06V165.39H1333.06ZM1334.06 169.518H1358.44V167.518H1334.06V169.518ZM1359.44 168.518V165.39H1357.44V168.518H1359.44ZM1336.62 166.954V117.752H1334.62V166.954H1336.62ZM1335.62 116.752H1332.5V118.752H1335.62V116.752ZM1331.5 117.752V166.954H1333.5V117.752H1331.5ZM1332.5 167.954H1335.62V165.954H1332.5V167.954ZM1334.06 115.188H1333.6V117.188H1334.06V115.188ZM1332.6 116.188V119.316H1334.6V116.188H1332.6ZM1333.6 120.316H1334.06V118.316H1333.6V120.316ZM1335.06 119.316V116.188H1333.06V119.316H1335.06ZM1331.05 117.497C1329.5 133.087 1323.61 145.628 1314.3 154.267L1315.66 155.734C1325.39 146.705 1331.45 133.679 1333.04 117.695L1331.05 117.497ZM1314.3 154.267C1304.99 162.899 1292.02 167.838 1275.89 167.838V169.838C1292.44 169.838 1305.92 164.761 1315.66 155.734L1314.3 154.267ZM1275.89 172.967C1293.1 172.967 1307.38 167.675 1317.79 158.028L1316.43 156.562C1306.45 165.812 1292.68 170.967 1275.89 170.967V172.967ZM1317.79 158.028C1328.19 148.389 1334.5 134.605 1336.15 118.007L1334.16 117.808C1332.55 134.013 1326.41 147.312 1316.43 156.562L1317.79 158.028ZM1335.25 116.912L1332.14 116.601L1331.94 118.591L1335.06 118.902L1335.25 116.912Z" fill="white" mask="url(#path-3-inside-1_2501_6313)"/>
<path d="M0.502341 115.128L34.4776 115.59C35.0569 123.829 38.437 130.463 44.6179 135.456C50.913 140.54 59.1189 142.936 69.4189 142.936C77.8007 142.936 84.8051 141.261 90.1459 137.619C95.5033 133.967 98.4472 128.824 98.4472 122.229C98.4472 117.809 96.7239 114.109 93.7681 111.4C90.8378 108.714 86.4776 106.544 81.1995 105.105C75.9549 103.675 67.6218 101.77 56.6874 99.3931L56.6771 99.3908L56.6668 99.3891C45.7569 97.4917 36.529 94.8862 29.2096 91.5807L29.2042 91.5783C21.6756 88.2845 15.802 83.5847 11.0999 77.2369C6.43201 70.9352 4.30377 62.4965 4.30377 51.859C4.30377 42.4447 6.89148 33.7485 12.0611 26.2291C17.233 18.7063 24.5266 12.8182 33.9637 8.57155C43.4065 4.32227 54.0345 1.95898 65.8529 1.95898C77.9104 1.95898 88.7738 4.32281 98.4502 8.80698C108.125 13.2904 115.663 19.418 121.314 27.1878C126.862 35.0487 129.683 43.5851 130.003 53.2609H96.005C94.983 46.2247 92.089 40.5413 86.8525 36.2569C81.5191 31.8932 74.5075 29.4873 65.8529 29.4873C57.7026 29.4873 51.411 31.1655 46.5472 34.5701C41.6489 37.999 39.2019 42.9121 39.2019 49.2439C39.2019 53.8691 40.6666 57.593 43.6611 60.0884C46.5774 62.5187 50.6863 64.6879 55.9741 66.1301C61.2199 67.5607 69.3166 69.4655 80.2638 71.3696C91.1788 73.5053 100.653 76.1125 108.219 79.1864C115.739 82.2414 121.613 86.9389 126.317 93.0544C130.985 99.1225 133.345 107.324 133.345 117.712C133.345 127.832 130.524 136.767 125.113 144.767C119.464 152.769 111.93 158.894 102.02 163.377L102.011 163.381C92.1059 168.098 81.2461 170.227 68.9434 170.227C55.6903 170.227 43.8758 167.861 33.4899 163.14C23.11 158.422 15.1012 151.587 9.45007 143.11L9.44465 143.102C3.65214 134.761 0.598442 125.516 0.502341 115.128Z" fill="white" stroke="white"/>
<path d="M544.01 115.128L577.986 115.59C578.565 123.829 581.945 130.463 588.126 135.456C594.421 140.54 602.627 142.936 612.927 142.936C621.309 142.936 628.313 141.261 633.654 137.619C639.011 133.967 641.955 128.824 641.955 122.229C641.955 117.809 640.232 114.109 637.276 111.4C634.346 108.714 629.986 106.544 624.708 105.105C619.463 103.675 611.13 101.77 600.195 99.3931L600.185 99.3908L600.175 99.3891C589.265 97.4917 580.037 94.8862 572.718 91.5807L572.712 91.5783C565.184 88.2845 559.31 83.5847 554.608 77.2369C549.94 70.9352 547.812 62.4965 547.812 51.859C547.812 42.4448 550.4 33.7485 555.569 26.2291C560.741 18.7063 568.035 12.8182 577.472 8.57155C586.915 4.32227 597.542 1.95898 609.361 1.95898C621.418 1.95898 632.282 4.32281 641.958 8.80698C651.633 13.2904 659.171 19.418 664.822 27.1878C670.37 35.0487 673.191 43.5851 673.511 53.2609H639.513C638.491 46.2247 635.597 40.5413 630.361 36.2569C625.027 31.8932 618.015 29.4873 609.361 29.4873C601.211 29.4873 594.919 31.1655 590.055 34.5701C585.157 37.999 582.71 42.9121 582.71 49.2439C582.71 53.8691 584.175 57.593 587.169 60.0884C590.086 62.5187 594.194 64.6879 599.482 66.1301C604.728 67.5607 612.825 69.4655 623.772 71.3696C634.687 73.5053 644.161 76.1125 651.727 79.1864C659.247 82.2414 665.121 86.9389 669.825 93.0544C674.493 99.1225 676.853 107.324 676.853 117.712C676.853 127.832 674.032 136.767 668.622 144.767C662.972 152.769 655.438 158.894 645.528 163.377L645.52 163.381C635.614 168.098 624.754 170.227 612.451 170.227C599.198 170.227 587.384 167.861 576.998 163.14C566.618 158.422 558.609 151.587 552.958 143.11L552.953 143.102C547.16 134.761 544.106 125.516 544.01 115.128Z" fill="white" stroke="white"/>
<path d="M348.254 82.298L348.265 170.365H316.651V1.66504H348.263V19.168V20.1742L349.065 19.5665C358.876 12.1317 370.158 6.55201 382.23 3.85451L382.121 3.36654L382.23 3.85451C433.442 -7.58899 482.114 29.3787 485.351 81.2546L485.34 170.365H453.729L453.74 82.0336V82.0126L453.738 81.9917C450.964 48.9641 418.909 26.274 386.607 35.295C365.392 41.2198 349.876 60.2953 348.255 82.2611L348.254 82.2795L348.254 82.298Z" fill="white" stroke="white"/>
<path d="M1052.86 82.2979L1052.87 170.365H1021.26V1.66504H1052.87V19.168V20.1742L1053.67 19.5665C1063.48 12.1317 1074.76 6.55201 1086.84 3.85452L1086.73 3.36654L1086.84 3.85451C1138.04 -7.58898 1186.72 29.3788 1189.96 81.2546L1189.95 170.365H1158.33L1158.35 82.0337V82.0127L1158.34 81.9918C1155.57 48.964 1123.51 26.274 1091.22 35.295C1070 41.2198 1054.48 60.2953 1052.86 82.2611L1052.86 82.2795V82.2979Z" fill="white" stroke="white"/>
<path d="M835.598 130.538L836.019 130.809L835.598 130.538C803.462 180.451 730.71 181.807 696.851 132.992L696.44 133.277L696.851 132.992C658.692 77.9813 697.799 2.49611 764.267 1.67184C830.429 0.85109 871.698 74.4816 835.598 130.538ZM810.329 111.994L809.899 111.738L810.329 111.994C831.322 76.7195 804.863 31.958 764.237 32.9584V32.9541L763.72 32.9718C722.584 34.3737 698.725 81.1326 722.516 115.177C744.29 146.334 790.905 144.622 810.329 111.994Z" fill="white" stroke="white"/>
<path d="M304.692 170.365H273.08V152.865V151.84L272.273 152.471C246.165 172.84 209.944 175.951 180.632 160.41C123.986 130.376 120.575 50.3122 174.346 15.3729C229.054 -20.1752 301.031 17.4997 304.703 81.5334L304.692 170.365ZM218.412 138.73L218.631 138.74L218.633 138.738C260.476 140.343 287.492 93.7899 265.158 58.1267C245.341 26.4803 199.542 24.8006 177.567 55.0812C152.678 89.3776 176.384 136.95 218.412 138.73Z" fill="white" stroke="white"/>
</svg>
