<svg width="1280" height="163" viewBox="0 0 1280 163" fill="none" xmlns="http://www.w3.org/2000/svg">
<path d="M949.672 77.0356C949.672 40.7529 927.834 4.47022 880.441 3.89771C839.327 3.32521 808.355 32.8094 808.355 81.2582C808.355 129.706 841.83 159.191 881.229 159.191C920.621 159.191 943.607 138.223 948.745 108.452H923.19C918.339 125.771 904.782 136.219 881.796 136.219C858.817 136.219 836.692 122.049 834.403 89.4877H948.745C949.319 85.2659 949.598 81.2582 949.598 77.0356H949.672ZM835.051 67.9471C838.76 38.7492 856.602 26.8696 879.867 26.8696C903.14 26.8696 920.121 38.463 923.263 67.9471H835.051Z" fill="black" stroke="black" stroke-width="6"/>
<path d="M1200.84 160.964C1158.43 160.964 1128.56 129.804 1128.56 81.5484C1128.56 35.6735 1157.56 2.99841 1204.52 2.99841C1243.91 2.99841 1270.95 26.3687 1277.45 64.6699H1250.82C1246.07 40.8669 1228.54 26.3687 1204.52 26.3687C1174.23 26.3687 1155.18 47.575 1155.18 81.5484C1155.18 115.955 1174.44 137.377 1203.44 137.377C1227.02 137.377 1242.39 122.014 1242.39 100.374H1196.73V78.5189H1248.45C1267.92 78.5189 1278.53 88.2565 1278.53 106.65V157.718H1255.59V111.41H1255.15C1252.13 141.705 1232.22 160.964 1200.84 160.964Z" fill="black"/>
<path d="M1277.45 64.6699V66.142H1279.18L1278.9 64.4239L1277.45 64.6699ZM1250.82 64.6699L1249.38 64.9586L1249.62 66.142H1250.82V64.6699ZM1242.39 100.374H1243.86V98.9024H1242.39V100.374ZM1196.73 100.374H1195.25V101.847H1196.73V100.374ZM1196.73 78.519V77.0469H1195.25V78.519H1196.73ZM1278.53 157.718V159.19H1280V157.718H1278.53ZM1255.59 157.718H1254.11V159.19H1255.59V157.718ZM1255.59 111.41H1257.06V109.938H1255.59V111.41ZM1255.15 111.41V109.938H1253.82L1253.69 111.264L1255.15 111.41ZM1200.84 159.492C1180.01 159.492 1162.35 151.85 1149.88 138.353C1137.4 124.848 1130.03 105.372 1130.03 81.5484H1127.09C1127.09 105.98 1134.66 126.212 1147.71 140.351C1160.79 154.498 1179.26 162.436 1200.84 162.436V159.492ZM1130.03 81.5484C1130.03 58.9205 1137.18 39.666 1150 26.0806C1162.81 12.5054 1181.39 4.47047 1204.52 4.47047V1.52637C1180.68 1.52637 1161.29 9.82895 1147.86 24.0601C1134.44 38.2809 1127.09 58.3014 1127.09 81.5484H1130.03ZM1204.52 4.47047C1223.91 4.47047 1240.17 10.2196 1252.36 20.5924C1264.56 30.9663 1272.79 46.0541 1275.99 64.9159L1278.9 64.4239C1275.6 44.9845 1267.07 29.2365 1254.27 18.3499C1241.47 7.46229 1224.51 1.52637 1204.52 1.52637V4.47047ZM1277.45 63.1979H1250.82V66.142H1277.45V63.1979ZM1252.27 64.3812C1249.83 52.1894 1244.1 42.2996 1235.83 35.4588C1227.56 28.6172 1216.83 24.8966 1204.52 24.8966V27.8407C1216.22 27.8407 1226.27 31.3692 1233.95 37.7274C1241.65 44.0866 1247.06 53.3474 1249.38 64.9586L1252.27 64.3812ZM1204.52 24.8966C1189.01 24.8966 1176.26 30.3367 1167.4 40.2367C1158.55 50.1182 1153.71 64.2945 1153.71 81.5484H1156.66C1156.66 64.8289 1161.34 51.4153 1169.59 42.2003C1177.82 33.0037 1189.73 27.8407 1204.52 27.8407V24.8966ZM1153.71 81.5484C1153.71 99.0187 1158.6 113.349 1167.33 123.334C1176.07 133.339 1188.56 138.849 1203.44 138.849V135.905C1189.32 135.905 1177.68 130.705 1169.54 121.397C1161.39 112.068 1156.66 98.4844 1156.66 81.5484H1153.71ZM1203.44 138.849C1215.55 138.849 1225.67 134.898 1232.78 128.05C1239.89 121.2 1243.86 111.554 1243.86 100.374H1240.92C1240.92 110.834 1237.21 119.689 1230.74 125.931C1224.26 132.175 1214.91 135.905 1203.44 135.905V138.849ZM1242.39 98.9024H1196.73V101.847H1242.39V98.9024ZM1198.2 100.374V78.519H1195.25V100.374H1198.2ZM1196.73 79.991H1248.45V77.0469H1196.73V79.991ZM1248.45 79.991C1257.96 79.991 1265.07 82.3684 1269.78 86.7646C1274.49 91.144 1277.06 97.7358 1277.06 106.65H1280C1280 97.1705 1277.25 89.697 1271.79 84.6096C1266.35 79.5383 1258.41 77.0469 1248.45 77.0469V79.991ZM1277.06 106.65V157.718H1280V106.65H1277.06ZM1278.53 156.246H1255.59V159.19H1278.53V156.246ZM1257.06 157.718V111.41H1254.11V157.718H1257.06ZM1255.59 109.938H1255.15V112.882H1255.59V109.938ZM1253.69 111.264C1252.21 126.122 1246.59 138.154 1237.63 146.468C1228.66 154.778 1216.22 159.492 1200.84 159.492V162.436C1216.84 162.436 1230.04 157.52 1239.63 148.627C1249.22 139.739 1255.08 126.994 1256.62 111.557L1253.69 111.264Z" fill="black"/>
<path d="M32.8915 108.911C33.339 116.743 36.4715 123.008 42.289 127.707C48.1066 132.405 55.7141 134.643 65.3354 134.643C73.1667 134.643 79.6555 133.077 84.578 129.72C89.5006 126.364 92.1856 121.665 92.1856 115.624C92.1856 111.596 90.6193 108.24 87.9343 105.779C85.2493 103.318 81.2218 101.304 76.2992 99.9614C71.3767 98.6189 63.5454 96.8289 53.2528 94.5914C42.9603 92.8014 34.234 90.3401 27.2977 87.2076C20.1376 84.075 14.5438 79.6 10.0688 73.5587C5.59379 67.5174 3.58002 59.4624 3.58002 49.3936C3.58002 40.4435 6.04129 32.1647 10.9638 25.0047C15.8864 17.8446 22.8226 12.2508 31.7727 8.22329C40.7228 4.19577 50.7916 1.95825 61.9791 1.95825C73.3905 1.95825 83.683 4.19577 92.8568 8.44704C102.031 12.6983 109.191 18.5159 114.561 25.8997C119.931 33.5072 122.616 41.786 122.84 51.1836H89.9481C89.0531 44.471 86.3681 39.101 81.4455 35.0735C76.523 31.0459 70.0342 28.8084 61.9791 28.8084C54.3716 28.8084 48.5541 30.3747 44.079 33.5072C39.604 36.6397 37.3665 41.1148 37.3665 46.9323C37.3665 51.1836 38.709 54.5399 41.394 56.7774C44.079 59.0149 47.8828 61.0286 52.8053 62.3712C57.7279 63.7137 65.3354 65.5037 75.628 67.2937C85.9206 69.3074 94.8706 71.7687 102.031 74.6775C109.191 77.5863 114.784 82.0613 119.26 87.8788C123.735 93.6964 125.972 101.528 125.972 111.373C125.972 120.994 123.287 129.497 118.141 137.104C112.771 144.712 105.611 150.529 96.2131 154.781C86.8156 159.256 76.523 161.269 64.8879 161.269C52.3578 161.269 41.1703 159.032 31.3252 154.557C21.4801 150.082 13.8726 143.593 8.50255 135.538C2.90877 127.483 0 118.533 0 108.464L32.8915 108.911Z" fill="black"/>
<path d="M544.428 108.911C544.876 116.743 548.008 123.008 553.826 127.707C559.644 132.405 567.251 134.643 576.872 134.643C584.704 134.643 591.192 133.077 596.115 129.72C601.038 126.364 603.723 121.665 603.723 115.624C603.723 111.596 602.156 108.24 599.471 105.779C596.786 103.318 592.759 101.304 587.836 99.9614C582.914 98.6189 575.082 96.8289 564.79 94.5914C554.497 92.8014 545.771 90.3401 538.835 87.2076C531.675 84.075 526.081 79.6 521.606 73.5587C517.131 67.5174 515.117 59.4624 515.117 49.3936C515.117 40.4435 517.578 32.1647 522.501 25.0047C527.423 17.8446 534.36 12.2508 543.31 8.22329C552.26 4.19577 562.329 1.95825 573.516 1.95825C584.927 1.95825 595.22 4.19577 604.394 8.44704C613.568 12.6983 620.728 18.5159 626.098 25.8997C631.468 33.5072 634.153 41.786 634.377 51.1836H601.485C600.59 44.471 597.905 39.101 592.982 35.0735C588.06 31.0459 581.571 28.8084 573.516 28.8084C565.909 28.8084 560.091 30.3747 555.616 33.5072C551.141 36.6397 548.903 41.1148 548.903 46.9323C548.903 51.1836 550.246 54.5399 552.931 56.7774C555.616 59.0149 559.42 61.0286 564.342 62.3712C569.265 63.7137 576.872 65.5037 587.165 67.2937C597.458 69.3074 606.408 71.7687 613.568 74.6775C620.728 77.5863 626.321 82.0613 630.796 87.8788C635.272 93.6964 637.509 101.528 637.509 111.373C637.509 120.994 634.824 129.497 629.678 137.104C624.308 144.712 617.148 150.529 607.75 154.781C598.353 159.256 588.06 161.269 576.425 161.269C563.895 161.269 552.707 159.032 542.862 154.557C533.017 150.082 525.41 143.593 520.04 135.538C514.446 127.483 511.537 118.533 511.537 108.464L544.428 108.911Z" fill="black"/>
<path d="M328.247 1.68164V18.6256C337.528 11.5924 348.207 6.30889 359.643 3.75365C408.131 -7.08117 454.216 27.9259 457.272 77.0454L457.261 161.399H426.568L426.579 77.7932C423.992 46.9995 394.107 25.8471 363.992 34.2572C344.217 39.7797 329.749 57.5647 328.239 78.042L328.249 161.399H297.554V1.68164H328.247Z" fill="black"/>
<path d="M991.404 1.68164V18.6256C1000.69 11.5924 1011.37 6.30889 1022.8 3.75365C1071.28 -7.08117 1117.37 27.9259 1120.43 77.0454L1120.42 161.399H1089.72L1089.74 77.7932C1087.15 46.9995 1057.26 25.8471 1027.15 34.2572C1007.38 39.7797 992.906 57.5647 991.397 78.042L991.404 161.399H960.712V1.68164H991.404Z" fill="black"/>
<path fill-rule="evenodd" clip-rule="evenodd" d="M786.841 123.699C821.022 70.6227 781.946 0.910986 719.304 1.68808C656.369 2.46854 619.344 73.938 655.473 126.022C687.531 172.242 756.414 170.958 786.841 123.699ZM762.258 105.75C781.91 72.7306 756.951 30.7892 718.811 32.0894V32.0877C680.463 33.3947 658.226 76.9858 680.401 108.717C700.698 137.762 744.152 136.165 762.258 105.75Z" fill="black"/>
<path fill-rule="evenodd" clip-rule="evenodd" d="M256.546 161.399V144.458C231.828 163.744 197.537 166.688 169.786 151.975C116.154 123.539 112.927 47.7378 163.834 14.6591C215.637 -19.0009 283.783 16.68 287.25 77.3089L287.239 161.399H256.546ZM249.162 55.5424C270.018 88.8461 244.705 132.339 205.586 130.683L205.585 130.685C166.394 129.025 144.303 84.6706 167.503 52.7027C187.989 24.4743 230.687 26.039 249.162 55.5424Z" fill="black"/>
</svg>
